<svg
  height="100px"
  width="100px"
  fill="#FFF"
  xmlns="http://www.w3.org/2000/svg"
  viewBox="0 0 24 24"
  x="0px"
  y="0px"
>
  <path
    fill-rule="evenodd"
    d="M3.81818182,11 L20.1818182,11 C21.1859723,11 22,11.8954305 22,13 L22,15 C22,16.1045695 21.1859723,17 20.1818182,17 L3.81818182,17 C2.81402773,17 2,16.1045695 2,15 L2,13 C2,11.8954305 2.81402773,11 3.81818182,11 Z M4,13 L4,15 L20,15 L20,13 L4,13 Z M3.81818182,3 L20.1818182,3 C21.1859723,3 22,3.8954305 22,5 L22,7 C22,8.1045695 21.1859723,9 20.1818182,9 L3.81818182,9 C2.81402773,9 2,8.1045695 2,7 L2,5 C2,3.8954305 2.81402773,3 3.81818182,3 Z M4,5 L4,7 L20,7 L20,5 L4,5 Z M2,19 L14,19 L14,21 L2,21 L2,19 Z"
  ></path>
</svg>
